<?xml version="1.0" standalone="no"?>
<!DOCTYPE svg PUBLIC "-//W3C//DTD SVG 20010904//EN"
 "http://www.w3.org/TR/2001/REC-SVG-20010904/DTD/svg10.dtd">
<svg version="1.0" xmlns="http://www.w3.org/2000/svg"
 width="170.000000pt" height="170.000000pt" viewBox="0 0 170.000000 170.000000"
 preserveAspectRatio="xMidYMid meet">
<metadata>
Created by potrace 1.14, written by Peter Selinger 2001-2017
</metadata>
<g transform="translate(0.000000,170.000000) scale(0.100000,-0.100000)"
fill="#000000" stroke="none">
<path d="M469 1423 c-68 -57 -159 -149 -159 -161 0 -7 6 -12 13 -12 8 0 7 -3
-3 -10 -11 -7 -8 -15 20 -42 19 -19 48 -48 63 -65 l28 -30 -26 5 c-23 4 -36
-5 -83 -55 -187 -196 -190 -463 -7 -649 192 -195 494 -191 682 9 73 78 113
168 120 272 3 39 7 72 10 75 3 3 127 4 275 2 214 -2 273 0 279 10 13 19 11 76
-2 84 -16 9 -709 12 -715 3 -2 -5 3 -25 11 -46 22 -52 22 -157 0 -224 -14 -40
-33 -68 -75 -110 -72 -70 -138 -94 -244 -87 -201 13 -325 181 -279 381 16 70
48 122 104 171 l43 36 -25 28 c-14 15 -32 36 -40 46 -32 43 37 -10 117 -89 45
-44 96 -93 114 -110 l33 -30 -6 25 c-3 14 -10 40 -15 58 -6 17 -7 32 -3 32 5
0 14 -19 20 -43 24 -83 33 -79 180 64 128 125 212 199 224 199 4 0 -9 -16 -28
-35 -19 -19 -35 -38 -35 -43 0 -4 13 -20 28 -35 16 -15 44 -59 62 -98 l34 -70
68 2 68 2 0 31 c0 50 -27 139 -67 226 -36 75 -53 93 -68 70 -10 -16 -25 -11
-18 6 4 10 -1 17 -16 21 -11 3 -18 10 -15 15 3 5 12 7 20 4 36 -14 6 29 -77
107 l-91 87 -243 0 -243 0 -33 -27z m101 -125 c0 -19 -2 -20 -10 -8 -13 19
-13 30 0 30 6 0 10 -10 10 -22z m130 -49 c0 -6 -18 -8 -39 -6 -58 6 -64 -1
-47 -56 8 -26 12 -47 9 -47 -3 0 1 -8 8 -17 11 -13 11 -15 1 -9 -13 8 -30 45
-37 79 -10 45 -16 55 -34 50 -10 -3 -22 1 -27 8 -5 9 -2 11 9 6 9 -3 18 -3 21
1 6 11 136 2 136 -9z m-247 4 c-7 -2 -21 -2 -30 0 -10 3 -4 5 12 5 17 0 24 -2
18 -5z m327 -1 c0 -4 -16 -8 -35 -8 -19 -1 -35 2 -35 6 0 5 16 8 35 8 19 0 35
-3 35 -6z m80 1 c0 -5 -11 -8 -25 -8 -14 0 -25 3 -25 8 0 4 11 7 25 7 14 0 25
-3 25 -7z m32 -46 c-9 -23 -20 -43 -24 -45 -4 -2 -4 -10 -1 -18 3 -8 1 -14 -5
-14 -12 0 -10 13 7 55 7 16 10 39 7 51 -5 18 -2 21 13 17 18 -4 18 -7 3 -46z
m-225 -189 c-3 -8 -6 -5 -6 6 -1 11 2 17 5 13 3 -3 4 -12 1 -19z"/>
<path d="M1243 752 c-18 -2 -33 -9 -34 -15 -5 -81 -12 -113 -32 -169 -33 -85
-52 -121 -82 -154 -13 -14 -23 -30 -20 -34 5 -9 439 -10 453 -1 5 3 11 27 13
54 l4 47 -152 0 c-84 0 -153 2 -153 6 0 3 13 36 29 73 30 71 58 177 49 186 -8
8 -39 11 -75 7z"/>
<path d="M1150 290 l0 -41 158 3 157 3 3 38 3 37 -160 0 -161 0 0 -40z"/>
</g>
</svg>
